<svg xmlns="http://www.w3.org/2000/svg" width="212" height="34" viewBox="0 0 212 34"><path d="M205 .94v26.11L194.1 1.13h-10v31.94h6.07V7.34L201 33.07h10V.94zm-40.19-.2c-9.95 0-13.25 1.75-13.25 11.7V21c0 10.47 3.56 12.21 13.25 12.21s13.25-1.64 13.25-12.21v-8.6c0-10-3.29-11.7-13.25-11.7m7.24 19.46c0 6.34-1.23 6.92-7.24 6.92s-7.24-.58-7.24-6.92v-6.88c.13-5 .78-6.46 7.24-6.46s7.11 1.36 7.24 6.46zM90.92 1v6h9.18v26h6V7h9.25V1zM34.94 1v32h21.65v-6.14H41v-7h14.69v-6.12H41V7h15.47V1zM24 1l-8.33 25.79h-.13L7.27 1H1l10.08 32h9.06L30.22 1zm50.18 26.12c-7 0-6.53-1.36-6.66-6.47v-7.43c.13-5-.39-6.47 6.66-6.47 5.88 0 6.53.39 6.72 5h6C86.78 2.1 83 .74 74.18.74c-10 0-12.67 1.75-12.67 11.7v9.11c0 10 2.71 11.7 12.67 11.7 8.85 0 12.6-1.36 12.8-11H81c-.2 4.59-.91 4.91-6.79 4.91M120 33V1h15.77c3.43 0 6.08.07 7.69 1.42s1.94 4.46 2 8-.33 5.43-1 6.66a4.81 4.81 0 0 1-3.46 2.47v.13c3.16.52 4.33 3.36 4.33 6.27V33h-6.14v-5.82c0-3.23-1.3-4.39-4.4-4.39H126V33zm6-16.29h8.79c2.07-.07 3.23-.45 3.95-1.23s.77-1.74.77-4 0-2.78-.65-3.42S137.21 7 135.2 7H126v9.7z" fill="#fff"/></svg>